<svg height="284.509" viewBox="0 0 1000 284.509" width="1000" xmlns="http://www.w3.org/2000/svg"><g transform="translate(0 -767.85315)"><path d="m68.081331 767.86309v244.14571c0 8.0497-7.128095 7.6818-7.128095 7.6818h-14.910617c-6.856116 0-6.996453-6.9337-6.996453-6.9337v-76.98648h-39.046166v96.78138c0 19.7976 19.108101 19.8036 19.108101 19.8036h67.993555c19.414144.4196 19.413384-19.1493 19.413384-19.1493v-265.34301z"/><path d="m223.52482 884.08164v-116.20831h-75.16398s-24.79234-1.26233-24.79233 24.39333l.00026 237.67794s.48239 22.1368 24.44223 22.4176h75.51382v-32.6639h-52.90784s-8.65759-.0001-8.65759-8.7529v-34.20648s0-8.09768 8.22032-8.09768h53.34511v-32.85995h-53.78239s-7.78304.0136-7.78304-8.64679v-34.7231s0-8.32976 8.22032-8.32976z"/><path d="m291.25555 884.05105c-5.46562 0-9.92561 4.58554-9.92561 10.20074v115.24831c0 5.6151 4.45999 10.201 9.92561 10.201h3.76046c5.46562 0 9.92565-4.5859 9.92565-10.201v-115.24831c0-5.6152-4.46003-10.20074-9.92565-10.20074zm-29.07734-116.18796h61.39045c10.93139 0 19.80763 9.17148 19.80763 20.40163v243.65088c0 11.2752-8.87624 20.4466-19.80763 20.4466h-61.39045c-10.93138 0-19.80776-9.1714-19.80776-20.4466v-243.65088c0-11.23015 8.87638-20.40163 19.80776-20.40163"/><g fill-rule="evenodd"><path d="m400.20578 884.06962v53.30306h20.11368s6.90865 0 6.90865-6.50315v-39.4543s.0344-7.34561-8.70126-7.34561zm0 168.29258h-38.52204v-284.49881h73.67727c30.38917 0 30.38917 26.91195 30.38917 26.91195v155.04642c0 18.81334-17.0528 18.81334-17.0528 18.81334h-48.4916z"/><path d="m517.44893 937.37268h24.92354l-3.41047-47.21911s.34984-6.08395-9.66348-6.08395c-9.13852 0-8.8761 5.75448-8.8761 5.75448zm-1.83636 31.26242-8.2641 83.7271h-37.51645l23.52428-263.85809s0-20.64072 19.06428-20.64072h35.72359c19.06441 0 19.06441 20.64072 19.06441 20.64072l23.5243 263.85809h-37.51645l-8.26399-83.7271z"/><path d="m643.76271 884.06962v53.30306h20.07002s6.95229 0 6.95229-6.50315v-39.4543s.0344-7.34561-8.70122-7.34561zm0 84.56548v83.7271h-38.52219v-284.49881h73.67743c30.3455 0 30.3455 26.91195 30.3455 26.91195v134.64158c0 18.8136-16.30959 24.47811-16.30959 24.47811s10.40655 2.62095 14.38566 12.77467c3.71655 9.64076 4.0226 17.40967 4.0226 17.40967l7.34605 68.28283h-38.47842l-4.24137-65.33261s-1.09143-18.39449-16.04729-18.39449z"/><path d="m765.52388 884.06962v135.62628h25.40445s6.90866 0 6.90866-6.507v-121.77367s.0344-7.34561-8.70139-7.34561zm-33.18764 168.29258v-284.49881h68.51773c30.38929 0 30.38929 26.91195 30.38929 26.91195v224.92056c0 32.6663-26.36655 32.6663-26.36655 32.6663z"/></g><path d="m915.08531 968.6351h-35.19901s-32.1381.52425-32.1381-30.60701c0-21.06007 0-170.1647 0-170.1647h34.98037l.17485 160.75957s-.65418 8.74972 11.10609 8.74972h21.0758v-169.50929h35.37383v258.71031s.83268 25.7885-26.84731 25.7885c-.17497 0-48.84132 0-48.84132 0v-32.6663h31.08885s9.22595 0 9.22595-9.9216c0-13.0102 0-41.1392 0-41.1392"/><path d="m965.06343 977.90157h34.93657v33.93203h-34.93657zm0-210.03818h34.93657v200.77171h-34.93657z" fill-rule="evenodd"/></g></svg>