<svg height="284.509003" width="1000" xmlns="http://www.w3.org/2000/svg"><rect fill="none" height="100%" width="100%"/><g fill="#e3f5f3"><path d="m113.23362697 87.34899719v169.19484284c0 5.57850362-4.93982431 5.32354611-4.93982431 5.32354611h-10.33317153c-4.75134078 0-4.8485954-4.80510709-4.8485954-4.80510709v-53.35221899h-27.05929144v67.07023596c0 13.7198881 13.24206002 13.72404614 13.24206002 13.72404614h47.12005324c13.45415016.29078601 13.45362347-13.27061124 13.45362347-13.27061124v-183.88473373z"/><path d="m220.95715278 167.8893405v-80.53324692h-52.08921256s-17.18128109-.87480434-17.18127416 16.90476411l.00018018 164.7126288s.33429996 15.34097157 16.93865218 15.53556812h52.33165435v-22.63633232h-36.66553745s-5.99977603-.0000693-5.99977603-6.06582659v-23.70535205s0-5.61175412 5.69674458-5.61175412h36.9685689v-22.77219647h-37.27160729s-5.3937062.0094249-5.3937062-5.99229155v-24.06337366s0-5.77258734 5.69674458-5.77258734z"/><path d="m267.89506628 167.8681414c-3.78771643 0-6.87852358 3.17781426-6.87852358 7.06919078v79.86795958c0 3.89130721 3.09080715 7.06937096 6.87852358 7.06937096h2.60602752c3.78771643 0 6.8785513-3.17806375 6.8785513-7.06937096v-79.86795958c0-3.89137651-3.09083487-7.06919078-6.8785513-7.06919078zm-20.15081883-80.51914421h42.54405101c7.57553681 0 13.72683896 6.35590573 13.72683896 14.1384855v168.85192187c0 7.81379977-6.15130215 14.16965006-13.72683896 14.16965006h-42.54405101c-7.57552988 0-13.72692905-6.35585029-13.72692905-14.16965006v-168.85192187c0-7.78257977 6.15139918-14.1384855 13.72692905-14.1384855"/><g fill-rule="evenodd"><path d="m343.39840829 167.88101055v36.93942793h13.93893395s4.78774725 0 4.78774725-4.50673265v-27.34213142s.02383946-5.09056387-6.03003968-5.09056387zm0 116.62804407h-26.69606811v-197.15984953h51.05891117c21.05992705 0 21.05992705 18.65018702 21.05992705 18.65018702v107.44835396c0 13.0377884-11.81772072 13.0377884-11.81772072 13.0377884h-33.60504938z"/><path d="m424.64880723 204.82043849h17.27220369l-2.36348177-32.72320409s.24244179-4.21622384-6.69686549-4.21622384c-6.3330642 0-6.15120513 3.98789862-6.15120513 3.98789862zm-1.27261151 21.66509597-5.72708446 58.02352016h-25.99918656l16.30250582-182.85567283s0-14.3041767 13.21169173-14.3041767h24.75672088c13.21178182 0 13.21178182 14.3041767 13.21178182 14.3041767l16.30251968 182.85567283h-25.99918656l-5.72700823-58.02352016z"/><path d="m512.18522209 167.88101055v36.93942793h13.90867724s4.8179901 0 4.8179901-4.50673265v-27.34213142s.02383946-5.09056387-6.03001196-5.09056387zm0 58.60452391v58.02352016h-26.69617206v-197.15984953h51.05902205c21.02966341 0 21.02966341 18.65018702 21.02966341 18.65018702v93.3076439c0 13.03796858-11.30267051 16.9635173-11.30267051 16.9635173s7.21181868 1.81633838 9.96937232 8.85294394c2.57559755 6.68112036 2.78769254 12.06503436 2.78769254 12.06503436l5.09086879 47.32052302h-26.66583912l-2.93930182-45.27599801s-.75636933-12.74752214-11.12089461-12.74752214z"/><path d="m596.56664342 167.88101055v93.99004852h17.605478s4.78775418 0 4.78775418-4.50940073v-84.39008393s.02383946-5.09056387-6.03012977-5.09056387zm-22.99928815 116.62804407v-197.15984953h47.48331052c21.06001021 0 21.06001021 18.65018702 21.06001021 18.65018702v155.87166697c0 22.63799554-18.27222065 22.63799554-18.27222065 22.63799554z"/></g><path d="m700.21385739 226.48553446h-24.39318293s-22.27194891.36330926-22.27194891-21.21089183c0-14.59478946 0-117.92543753 0-117.92543753h24.24166374l.12117239 111.40761057s-.45335174 6.06362283 7.69660524 6.06362283h14.60569047v-117.47123339h24.51433452v179.28822195s.5770536 17.87162758-18.605391 17.87162758c-.12125555 0-33.84740801 0-33.84740801 0v-22.63799554h21.54481064s6.39365386 0 6.39365386-6.87574462c0-9.01616803 0-28.50977999 0-28.50977999"/><path d="m734.84907649 232.90726899h24.21131v23.51515611h-24.21131zm0-145.55806389h24.21131v139.13632937h-24.21131z" fill-rule="evenodd"/></g></svg>