<svg xmlns="http://www.w3.org/2000/svg" height="210.02684561181013" width="775.0268456118101" style=""><rect id="backgroundrect" width="100%" height="100%" x="0" y="0" fill="none" stroke="none" class="" style=""/><g class="currentLayer" style=""><title>Layer 1</title><g id="svg_1" class="" fill-opacity="1" fill="#e3f5f3"><path d="m78.54097314272465,0.452723939323945 v178.10785998036843 c0,5.872373675883847 -5.20004937292064,5.603985254531788 -5.20004937292064,5.603985254531788 h-10.877512796996932 c-5.001636721518325,0 -5.104014611943125,-5.058235382247268 -5.104014611943125,-5.058235382247268 v-56.16276116513142 h-28.484748172303426 v70.60342972132024 c0,14.442638245608913 13.939638658400913,14.447015333209107 13.939638658400913,14.447015333209107 h49.60229108063165 c14.162901495138742,0.3061043261737537 14.16234706404272,-13.969693930407663 14.16234706404272,-13.969693930407663 v-193.5715998116432 z" id="svg_2" fill="#e3f5f3"/><path d="m191.93926784825908,85.23585295896324 v-84.77565879013498 h-54.833220806571674 s-18.086373998976626,-0.9208881650593765 -18.086366703830624,17.795290378417544 l0.00018967379600852254,173.38952733571443 s0.35191054790981163,16.149118798005585 17.83096364235915,16.35396649769479 h55.088434194247135 v-23.828791944010632 h-38.59704173619818 s-6.315838306097773,-0.00007295146000327789 -6.315838306097773,-6.385368342626896 v-24.954126575729198 s0,-5.907375786393421 5.9968434569414395,-5.907375786393421 h38.916036585354504 v-23.97181328134706 h-39.23503872965684 s-5.677841312639107,0.009921398560445788 -5.677841312639107,-6.3079595484174185 v-25.33100840839813 s0,-6.076681534769027 5.9968434569414395,-6.076681534769027 z" id="svg_3" fill="#e3f5f3"/><path d="m241.3498242541371,85.21353710734826 c-3.9872495882311494,0 -7.240877409231335,3.3452183790343017 -7.240877409231335,7.4415887611383535 v84.07532477410354 c0,4.096297430644048 3.253627821000187,7.441778434934362 7.240877409231335,7.441778434934362 h2.743310472839258 c3.9872495882311494,0 7.240906589815338,-3.345481004290314 7.240906589815338,-7.441778434934362 v-84.07532477410354 c0,-4.096370382104051 -3.253657001584188,-7.4415887611383535 -7.240906589815338,-7.4415887611383535 zm-21.212344060117076,-84.76081316802433 h44.785229577582214 c7.9746086036523005,0 14.449955277047241,6.690728563908618 14.449955277047241,14.883286949466713 v177.74687427083424 c0,8.22542301828957 -6.47534667339494,14.916093221030188 -14.449955277047241,14.916093221030188 h-44.785229577582214 c-7.974601308506303,0 -14.450050113945247,-6.690670202740614 -14.450050113945247,-14.916093221030188 v-177.74687427083424 c0,-8.192558385558096 6.475448805438944,-14.883286949466713 14.450050113945247,-14.883286949466713 " id="svg_4" fill="#e3f5f3"/><g fill-rule="evenodd" id="svg_5" fill="#e3f5f3"><path d="m320.83060771606614,85.22708419347083 v38.88536049642313 h14.673223220387273 s5.039961041516446,0 5.039961041516446,-4.744142871203156 v-28.78248788407321 s0.02509530224112757,-5.358729741146769 -6.347696208681205,-5.358729741146769 zm0,122.77189418718416 h-28.102390603046647 v-207.5460355869511 h53.748644155556946 c22.169343197878078,0 22.169343197878078,19.6326604403521 22.169343197878078,19.6326604403521 v113.10862707281402 c0,13.724606205380649 -12.440266571438947,13.724606205380649 -12.440266571438947,13.724606205380649 h-35.375330178949426 z" id="svg_6" fill="#e3f5f3"/><path d="m406.36119739489914,124.11244468989396 h18.18208631450093 l-2.4879876579737865,-34.44703014555372 s0.25521338767546736,-4.438330350869415 -7.049649747124743,-4.438330350869415 c-6.6666837626915365,0 -6.4752445413509365,4.197977175596616 -6.4752445413509365,4.197977175596616 zm-1.3396514309161913,22.8063918223567 l-6.028781606130875,61.080141868404354 h-27.36879801639969 l17.161305715259065,-192.48832899176256 s0,-15.057706595188549 13.907670599112876,-15.057706595188549 h26.060880470584927 c13.90776543601088,0 13.90776543601088,15.057706595188549 13.90776543601088,15.057706595188549 l17.16132030555106,192.48832899176256 h-27.36879801639969 l-6.028701359524872,-61.080141868404354 z" id="svg_7" fill="#e3f5f3"/><path d="m498.50894409022726,85.22708419347083 v38.88536049642313 h14.64137261294984 s5.071797058661878,0 5.071797058661878,-4.744142871203156 v-28.78248788407321 s0.02509530224112757,-5.358729741146769 -6.347667028097202,-5.358729741146769 zm0,61.69175231877983 v61.080141868404354 h-28.102500030236655 v-207.5460355869511 h53.74876087789295 c22.137485295294645,0 22.137485295294645,19.6326604403521 22.137485295294645,19.6326604403521 v98.2229983814812 c0,13.724795879176659 -11.898084025548584,17.857138626208325 -11.898084025548584,17.857138626208325 s7.591730160971099,1.9120212909559078 10.494549001107522,9.31930827560072 c2.711277486751819,7.033075175411999 2.9345454300918496,12.700608446752641 2.9345454300918496,12.700608446752641 l5.359050727570784,49.813321416556136 h-28.07056917619322 l-3.094141339141021,-47.66109285324743 s-0.7962141199137742,-13.419049015156922 -11.706732345959987,-13.419049015156922 z" id="svg_8" fill="#e3f5f3"/><path d="m587.3354953223003,85.22708419347083 v98.94135140813347 h18.532917180802688 s5.039968336662448,0 5.039968336662448,-4.74695150241328 v-88.83567016457343 s0.02509530224112757,-5.358729741146769 -6.347791045579209,-5.358729741146769 zm-24.210867920631802,122.77189418718416 v-207.5460355869511 h49.98468439610383 c22.169430739630076,0 22.169430739630076,19.6326604403521 22.169430739630076,19.6326604403521 v164.08283236754826 c0,23.830542779050713 -19.234783177494222,23.830542779050713 -19.234783177494222,23.830542779050713 z" id="svg_9" fill="#e3f5f3"/></g><path d="m696.4427421090807,146.91883651225066 h-25.67819170169973 s-23.4452131673134,0.38244802906718367 -23.4452131673134,-22.32826065834922 c0,-15.363628542712293 0,-124.13763306019756 0,-124.13763306019756 h25.518690629548562 l0.12755562781573115,117.27645340999125 s-0.47723386104944276,6.383048486198792 8.102054804278028,6.383048486198792 h15.37510380737081 v-123.65950189619006 h25.805725444077456 v188.73294832400583 s0.6074522171552936,18.81308726294528 -19.585504616605988,18.81308726294528 c-0.12764316956773517,0 -35.63045602487289,0 -35.63045602487289,0 v-23.830542779050713 h22.679769973229014 s6.730465224172402,0 6.730465224172402,-7.237952055685203 c0,-9.491130849346439 0,-30.011647033668435 0,-30.011647033668435 " id="svg_10" fill="#e3f5f3"/><path d="m732.9025103312708,153.6788616680164 h25.48673789006713 v24.753911293750196 h-25.48673789006713 zm0,-153.2259188743125 h25.48673789006713 v146.46589371854677 h-25.48673789006713 z" fill-rule="evenodd" id="svg_11" fill="#e3f5f3"/></g></g></svg>